# xmcd
#
# Track frame offsets:
#	150
#	11916
#	28077
#	40567
#	54141
#	65169
#	76658
#	92021
#	103530
#	122836
#	138648
#	153160
#	169664
#
# Disc length: 2536 seconds
#
# Revision: 2
# Processed by: cddbd v1.5.2PL0 Copyright (c) Steve Scherf et al.
# Submitted via: EasyCDDAExtractor 10.0.2.1
#
DISCID=9d09e60d
DTITLE=Ben and Carmen Steneker - Never Ending Love
DYEAR=2011
DGENRE=Country
TTITLE0=Never Ending Song of Love
TTITLE1=Beautifu Meath (Irish Waltz)
TTITLE2=Mariaxhi
TTITLE3=Flowers From The Moon
TTITLE4=Ain't No Cows In Texas
TTITLE5=Memories of You
TTITLE6=Dreaming My Dreams
TTITLE7=Power In Your Love
TTITLE8=Only The Heart MAy Know
TTITLE9=Better Off Without You
TTITLE10=Jealous Heart
TTITLE11=Old Fashioned Summer
TTITLE12=The Gift
EXTD=
EXTT0=
EXTT1=
EXTT2=
EXTT3=
EXTT4=
EXTT5=
EXTT6=
EXTT7=
EXTT8=
EXTT9=
EXTT10=
EXTT11=
EXTT12=
PLAYORDER=
